<svg xmlns="http://www.w3.org/2000/svg" viewBox="0 0 900 1400" role="img" aria-label="MORNING FLOW AI">
  <defs>
    <linearGradient id="bg" x1="0" y1="0" x2="1" y2="1">
      <stop offset="0" stop-color="#030716"/>
      <stop offset="0.46" stop-color="#071a2d"/>
      <stop offset="1" stop-color="#02040b"/>
    </linearGradient>
    <linearGradient id="line" x1="0" y1="0" x2="0" y2="1">
      <stop offset="0" stop-color="#ecfeff" stop-opacity="0"/>
      <stop offset="0.28" stop-color="#67e8f9" stop-opacity="0.92"/>
      <stop offset="0.72" stop-color="#38bdf8" stop-opacity="0.72"/>
      <stop offset="1" stop-color="#0ea5e9" stop-opacity="0"/>
    </linearGradient>
    <linearGradient id="glass" x1="0" y1="0" x2="1" y2="1">
      <stop offset="0" stop-color="#ffffff" stop-opacity="0.2"/>
      <stop offset="0.5" stop-color="#67e8f9" stop-opacity="0.08"/>
      <stop offset="1" stop-color="#020617" stop-opacity="0.25"/>
    </linearGradient>
    <filter id="softGlow" x="-40%" y="-40%" width="180%" height="180%">
      <feGaussianBlur stdDeviation="12" result="blur"/>
      <feColorMatrix in="blur" type="matrix" values="0 0 0 0 0.25 0 0 0 0 0.88 0 0 0 0 1 0 0 0 0.8 0"/>
      <feBlend in="SourceGraphic" mode="screen"/>
    </filter>
  </defs>
  <rect width="900" height="1400" fill="url(#bg)"/>
  <path d="M80 1080 C230 960 332 952 450 1036 C568 1120 675 1110 820 980" fill="none" stroke="#67e8f9" stroke-opacity="0.18" stroke-width="3"/>
  <path d="M108 1120 C250 1015 342 1010 450 1088 C558 1168 680 1155 792 1048" fill="none" stroke="#bae6fd" stroke-opacity="0.12" stroke-width="2"/>
  <g filter="url(#softGlow)">
    <rect x="438" y="205" width="24" height="565" rx="12" fill="url(#line)"/>
    <rect x="312" y="312" width="8" height="335" rx="4" fill="#67e8f9" opacity="0.36"/>
    <rect x="580" y="282" width="8" height="372" rx="4" fill="#bae6fd" opacity="0.28"/>
  </g>
  <g opacity="0.94">
    <rect x="118" y="194" width="664" height="790" rx="44" fill="url(#glass)" stroke="#93c5fd" stroke-opacity="0.23"/>
    <rect x="158" y="245" width="584" height="90" rx="22" fill="#020617" fill-opacity="0.32" stroke="#67e8f9" stroke-opacity="0.18"/>
    <rect x="158" y="370" width="258" height="270" rx="26" fill="#020617" fill-opacity="0.34" stroke="#67e8f9" stroke-opacity="0.16"/>
    <rect x="452" y="370" width="290" height="270" rx="26" fill="#020617" fill-opacity="0.3" stroke="#e0f2fe" stroke-opacity="0.13"/>
    <rect x="158" y="680" width="584" height="248" rx="28" fill="#020617" fill-opacity="0.32" stroke="#38bdf8" stroke-opacity="0.16"/>
  </g>
  <g fill="none" stroke-linecap="round">
    <path d="M204 430 H354" stroke="#67e8f9" stroke-opacity="0.55" stroke-width="9"/>
    <path d="M204 482 H330" stroke="#e0f2fe" stroke-opacity="0.32" stroke-width="7"/>
    <path d="M204 534 H366" stroke="#e0f2fe" stroke-opacity="0.22" stroke-width="7"/>
    <path d="M498 432 H692" stroke="#bae6fd" stroke-opacity="0.45" stroke-width="9"/>
    <path d="M498 486 H644" stroke="#67e8f9" stroke-opacity="0.34" stroke-width="7"/>
    <path d="M498 538 H710" stroke="#e0f2fe" stroke-opacity="0.2" stroke-width="7"/>
    <path d="M204 742 H698" stroke="#67e8f9" stroke-opacity="0.4" stroke-width="8"/>
    <path d="M204 805 H620" stroke="#e0f2fe" stroke-opacity="0.25" stroke-width="7"/>
    <path d="M204 868 H666" stroke="#bae6fd" stroke-opacity="0.2" stroke-width="7"/>
  </g>
  <text x="450" y="1146" text-anchor="middle" fill="#f8fafc" font-family="Arial, Helvetica, sans-serif" font-size="58" font-weight="700" letter-spacing="4">MORNING FLOW AI</text>
  <text x="450" y="1214" text-anchor="middle" fill="#bae6fd" font-family="Arial, Helvetica, sans-serif" font-size="28" font-weight="500" letter-spacing="2">Your Day. Optimized.</text>
  <text x="450" y="1264" text-anchor="middle" fill="#67e8f9" font-family="Arial, Helvetica, sans-serif" font-size="22" font-weight="600" letter-spacing="3">SPEAK  ORGANIZE  MOVE</text>
</svg>
